<svg width="205" height="52" viewBox="0 0 205 52" fill="none" xmlns="http://www.w3.org/2000/svg">
<g filter="url(#filter0_d_6_102)">
<path d="M29.8955 17.8476H18.3098V13.8022C18.3098 11.252 18.1997 9.65591 17.9795 9.01379C17.7594 8.37167 17.2365 8.05061 16.4109 8.05061C15.6954 8.05061 15.2092 8.3258 14.9524 8.87619C14.6955 9.42658 14.5671 10.8393 14.5671 13.1142V34.4968C14.5671 36.4966 14.6955 37.8175 14.9524 38.4597C15.2092 39.0834 15.7229 39.3953 16.4935 39.3953C17.3374 39.3953 17.9061 39.0376 18.1997 38.3221C18.5116 37.6066 18.6675 36.2122 18.6675 34.1391V28.8554H16.3284V22.0856H29.8955V46H22.6028L21.5295 42.8077C20.7407 44.1837 19.7408 45.2203 18.5299 45.9174C17.3374 46.5963 15.9247 46.9357 14.2919 46.9357C12.3472 46.9357 10.5217 46.4678 8.81554 45.5322C7.12768 44.5782 5.84343 43.404 4.96281 42.0097C4.08218 40.6154 3.53179 39.1568 3.31164 37.6341C3.09148 36.093 2.9814 33.7905 2.9814 30.7267V17.4898C2.9814 13.2334 3.21073 10.1421 3.66939 8.21573C4.12805 6.28936 5.43981 4.52811 7.60468 2.93198C9.78789 1.31751 12.6041 0.510267 16.0532 0.510267C19.4472 0.510267 22.2634 1.20743 24.5017 2.60175C26.7399 3.99607 28.1984 5.65641 28.8773 7.58278C29.5561 9.4908 29.8955 12.2703 29.8955 15.9212V17.8476ZM59.2313 22.3057V31.2495C59.2313 34.5335 59.0661 36.9461 58.7359 38.4872C58.4057 40.0099 57.6993 41.4409 56.6169 42.7802C55.5345 44.1012 54.1402 45.0827 52.4339 45.7248C50.7461 46.3486 48.8014 46.6605 46.5998 46.6605C44.1414 46.6605 42.0591 46.3944 40.3529 45.8624C38.6467 45.312 37.3166 44.4956 36.3626 43.4132C35.4269 42.3124 34.7573 40.9915 34.3536 39.4504C33.95 37.8909 33.7482 35.5609 33.7482 32.4604V23.1038C33.7482 19.7097 34.1151 17.0587 34.849 15.1506C35.5828 13.2426 36.9038 11.7107 38.8118 10.5549C40.7198 9.39907 43.1599 8.82116 46.132 8.82116C48.6271 8.82116 50.7644 9.19726 52.544 9.94946C54.342 10.6833 55.7271 11.6465 56.6995 12.839C57.6718 14.0315 58.3323 15.2607 58.6809 16.5266C59.0478 17.7925 59.2313 19.7189 59.2313 22.3057ZM48.1134 19.5538C48.1134 17.6824 48.0125 16.5083 47.8107 16.0313C47.6089 15.5359 47.1777 15.2882 46.5173 15.2882C45.8568 15.2882 45.4165 15.5359 45.1963 16.0313C44.9762 16.5083 44.8661 17.6824 44.8661 19.5538V36.0379C44.8661 37.7625 44.9762 38.8908 45.1963 39.4228C45.4165 39.9365 45.8476 40.1934 46.4897 40.1934C47.1502 40.1934 47.5813 39.9549 47.7831 39.4779C48.0033 39.0009 48.1134 37.9735 48.1134 36.3957V19.5538ZM74.6422 4.61067V10.3622H77.6418V16.1413H74.6422V35.6802C74.6422 38.0836 74.7614 39.4228 74.9999 39.698C75.2568 39.9732 76.2934 40.1108 78.1096 40.1108V46H73.624C71.0922 46 69.2851 45.8991 68.2026 45.6973C67.1202 45.4771 66.1662 44.991 65.3406 44.2388C64.515 43.4682 64.0013 42.5968 63.7995 41.6244C63.5977 40.6337 63.4968 38.3221 63.4968 34.6895V16.1413H61.1026V10.3622H63.4968V4.61067H74.6422ZM90.0256 23.6266H79.5957V21.1774C79.5957 18.3521 79.9167 16.178 80.5589 14.6553C81.2193 13.1142 82.5311 11.7566 84.4942 10.5824C86.4572 9.40824 89.0074 8.82116 92.1446 8.82116C95.9056 8.82116 98.7401 9.4908 100.648 10.8301C102.556 12.151 103.703 13.7838 104.088 15.7286C104.473 17.6549 104.666 21.6361 104.666 27.672V46H93.8508V42.7527C93.172 44.0553 92.2914 45.0368 91.2089 45.6973C90.1448 46.3394 88.8698 46.6605 87.3837 46.6605C85.439 46.6605 83.6502 46.1193 82.0174 45.0368C80.4029 43.936 79.5957 41.5418 79.5957 37.8542V34.8546C79.5957 32.121 80.0268 30.2588 80.8891 29.2681C81.7514 28.2774 83.8887 27.1216 87.3011 25.8007C90.9521 24.3697 92.906 23.4065 93.1628 22.9111C93.4196 22.4158 93.5481 21.4067 93.5481 19.884C93.5481 17.976 93.4013 16.7376 93.1078 16.1689C92.8326 15.5818 92.3647 15.2882 91.7043 15.2882C90.9521 15.2882 90.4842 15.5359 90.3008 16.0313C90.1173 16.5083 90.0256 17.765 90.0256 19.8014V23.6266ZM93.5481 28.6352C91.7685 29.9378 90.7319 31.0294 90.4384 31.91C90.1632 32.7906 90.0256 34.0565 90.0256 35.7077C90.0256 37.5974 90.1448 38.8174 90.3833 39.3678C90.6402 39.9182 91.1355 40.1934 91.8694 40.1934C92.5665 40.1934 93.016 39.9824 93.2178 39.5604C93.438 39.1201 93.5481 37.9827 93.5481 36.148V28.6352ZM118.783 1.44593H130.342C133.993 1.44593 136.754 1.7303 138.625 2.29903C140.515 2.86777 142.037 4.02359 143.193 5.76649C144.349 7.49105 144.927 10.2797 144.927 14.1324C144.927 16.7376 144.514 18.5539 143.689 19.5813C142.881 20.6087 141.276 21.3976 138.873 21.948C141.551 22.5534 143.368 23.5624 144.322 24.9751C145.276 26.3694 145.753 28.5159 145.753 31.4147V35.5426C145.753 38.5514 145.404 40.7805 144.707 42.2298C144.028 43.6792 142.936 44.6699 141.432 45.2019C139.928 45.734 136.845 46 132.185 46H118.783V1.44593ZM130.369 9.06883V18.9759C130.865 18.9575 131.25 18.9483 131.525 18.9483C132.662 18.9483 133.387 18.6731 133.699 18.1227C134.011 17.554 134.167 15.9487 134.167 13.3068C134.167 11.9125 134.038 10.9402 133.782 10.3898C133.525 9.82103 133.185 9.46328 132.763 9.31651C132.36 9.16974 131.562 9.08718 130.369 9.06883ZM130.369 25.9108V38.3771C132.002 38.3221 133.039 38.0652 133.479 37.6066C133.938 37.1479 134.167 36.0196 134.167 34.2217V30.0662C134.167 28.1582 133.965 27.0024 133.561 26.5988C133.158 26.1951 132.094 25.9658 130.369 25.9108ZM174.758 22.3057V31.2495C174.758 34.5335 174.593 36.9461 174.263 38.4872C173.933 40.0099 173.226 41.4409 172.144 42.7802C171.061 44.1012 169.667 45.0827 167.961 45.7248C166.273 46.3486 164.328 46.6605 162.127 46.6605C159.668 46.6605 157.586 46.3944 155.88 45.8624C154.174 45.312 152.843 44.4956 151.889 43.4132C150.954 42.3124 150.284 40.9915 149.881 39.4504C149.477 37.8909 149.275 35.5609 149.275 32.4604V23.1038C149.275 19.7097 149.642 17.0587 150.376 15.1506C151.11 13.2426 152.431 11.7107 154.339 10.5549C156.247 9.39907 158.687 8.82116 161.659 8.82116C164.154 8.82116 166.291 9.19726 168.071 9.94946C169.869 10.6833 171.254 11.6465 172.226 12.839C173.199 14.0315 173.859 15.2607 174.208 16.5266C174.575 17.7925 174.758 19.7189 174.758 22.3057ZM163.64 19.5538C163.64 17.6824 163.539 16.5083 163.338 16.0313C163.136 15.5359 162.705 15.2882 162.044 15.2882C161.384 15.2882 160.943 15.5359 160.723 16.0313C160.503 16.5083 160.393 17.6824 160.393 19.5538V36.0379C160.393 37.7625 160.503 38.8908 160.723 39.4228C160.943 39.9365 161.374 40.1934 162.017 40.1934C162.677 40.1934 163.108 39.9549 163.31 39.4779C163.53 39.0009 163.64 37.9735 163.64 36.3957V19.5538ZM202.112 1.44593V10.3622H195.233V46H183.647V10.3622H176.795V1.44593H202.112Z" fill="#D1E7FF"/>
</g>
<defs>
<filter id="filter0_d_6_102" x="0.472031" y="0.510265" width="204.15" height="51.4442" filterUnits="userSpaceOnUse" color-interpolation-filters="sRGB">
<feFlood flood-opacity="0" result="BackgroundImageFix"/>
<feColorMatrix in="SourceAlpha" type="matrix" values="0 0 0 0 0 0 0 0 0 0 0 0 0 0 0 0 0 0 127 0" result="hardAlpha"/>
<feOffset dy="2.50938"/>
<feGaussianBlur stdDeviation="1.25469"/>
<feComposite in2="hardAlpha" operator="out"/>
<feColorMatrix type="matrix" values="0 0 0 0 0 0 0 0 0 0 0 0 0 0 0 0 0 0 0.25 0"/>
<feBlend mode="normal" in2="BackgroundImageFix" result="effect1_dropShadow_6_102"/>
<feBlend mode="normal" in="SourceGraphic" in2="effect1_dropShadow_6_102" result="shape"/>
</filter>
</defs>
</svg>
