<svg width="384" height="374" viewBox="0 0 384 374" fill="none" xmlns="http://www.w3.org/2000/svg">
<g clip-path="url(#clip0_5_95)">
<rect x="89.5132" y="54.4071" width="293.671" height="283.045" rx="141.523" fill="#C8A587"/>
<g opacity="0.5">
<path d="M376.835 246.065C377.423 241.994 371.448 238.656 366.962 238.303C364.82 238.144 362.595 238.453 360.527 237.773C356.133 236.307 354.377 230.849 350.093 229.109C346.885 227.811 343.199 228.968 340.092 230.469C336.984 231.97 333.914 233.869 330.439 234.081C327.424 234.267 324.142 233.198 321.504 234.611C319.537 235.662 318.498 237.843 316.687 239.124C314.876 240.404 312.596 240.652 310.39 240.766C308.184 240.881 305.913 240.899 303.909 241.782C301.905 242.665 300.232 244.705 300.655 246.79L376.835 246.065Z" fill="white"/>
<path d="M163.201 199.119C163.752 195.295 158.157 192.159 153.956 191.827C151.951 191.678 149.868 191.968 147.931 191.329C143.816 189.952 142.172 184.825 138.161 183.191C135.157 181.971 131.705 183.058 128.796 184.468C125.887 185.878 123.012 187.662 119.758 187.861C116.935 188.035 113.862 187.032 111.391 188.359C109.549 189.346 108.577 191.395 106.881 192.598C105.185 193.801 103.05 194.034 100.985 194.141C98.9188 194.249 96.7927 194.266 94.9162 195.096C93.0397 195.925 91.4731 197.842 91.8691 199.8L163.201 199.119Z" fill="white"/>
<path d="M365.373 100.296C365.816 97.2114 361.323 94.6824 357.95 94.4148C356.339 94.2944 354.667 94.5285 353.112 94.0134C349.808 92.9028 348.488 88.768 345.267 87.45C342.855 86.4665 340.083 87.343 337.747 88.4804C335.411 89.6177 333.102 91.0562 330.489 91.2168C328.222 91.3573 325.755 90.5477 323.771 91.6182C322.292 92.4143 321.511 94.0669 320.149 95.037C318.788 96.0071 317.074 96.1945 315.415 96.2814C313.756 96.3684 312.049 96.3818 310.542 97.0509C309.035 97.7199 307.777 99.2654 308.095 100.844L365.373 100.296Z" fill="white"/>
<path d="M180.681 113.011C181.124 109.926 176.631 107.397 173.258 107.13C171.648 107.009 169.975 107.243 168.42 106.728C165.116 105.618 163.796 101.483 160.575 100.165C158.163 99.1814 155.391 100.058 153.055 101.195C150.719 102.333 148.41 103.771 145.798 103.932C143.531 104.072 141.063 103.263 139.08 104.333C137.6 105.129 136.819 106.782 135.458 107.752C134.096 108.722 132.382 108.909 130.723 108.996C129.064 109.083 127.357 109.097 125.85 109.766C124.344 110.435 123.086 111.98 123.404 113.559L180.681 113.011Z" fill="white"/>
<path d="M354.477 161.551C354.897 158.633 350.629 156.241 347.425 155.988C345.895 155.874 344.511 153.83 343.034 153.343C339.895 152.292 338.064 155.346 335.004 154.099C331.477 158.042 328.742 154.099 325.874 154.521C323.654 155.597 323.819 152.811 321.337 152.963C319.184 153.096 316.839 152.33 314.955 153.343C313.55 154.096 312.808 155.659 311.514 156.577C310.221 157.494 308.592 157.671 307.016 157.754C305.441 157.836 303.819 157.849 302.387 158.482C300.956 159.114 299.761 160.576 300.063 162.07L354.477 161.551Z" fill="white"/>
</g>
<rect opacity="0.9" x="14" y="-96" width="656" height="519" fill="url(#paint0_linear_5_95)"/>
<g opacity="0.2">
<path d="M214.909 156.613C241.436 147.638 255.391 119.635 246.079 94.0673C236.766 68.4999 207.712 55.0498 181.185 64.0256C154.657 73.0013 140.702 101.004 150.015 126.572C159.328 152.139 188.382 165.589 214.909 156.613Z" fill="#D1E7FF"/>
<path d="M183.963 112.401C182.521 113.167 180.875 113.504 179.234 113.368C177.593 113.233 176.031 112.632 174.744 111.641C173.458 110.649 172.505 109.313 172.007 107.8C171.509 106.287 171.487 104.665 171.945 103.141C172.402 101.616 173.319 100.256 174.579 99.2333C175.838 98.2105 177.384 97.5707 179.021 97.3948C180.658 97.2189 182.312 97.5147 183.775 98.2449C185.237 98.975 186.442 100.107 187.237 101.497C187.767 102.42 188.103 103.434 188.226 104.482C188.348 105.53 188.255 106.591 187.95 107.604C187.646 108.617 187.138 109.563 186.453 110.386C185.769 111.209 184.923 111.894 183.963 112.401Z" fill="white"/>
<path d="M199.324 91.2347C198.485 91.678 197.529 91.872 196.577 91.7921C195.624 91.7123 194.717 91.3621 193.971 90.7859C193.225 90.2097 192.673 89.4332 192.384 88.5546C192.095 87.676 192.083 86.7346 192.349 85.8494C192.615 84.9641 193.147 84.1747 193.878 83.5808C194.61 82.9869 195.507 82.6151 196.457 82.5125C197.408 82.4098 198.368 82.5809 199.218 83.004C200.067 83.4272 200.767 84.0835 201.23 84.89C201.538 85.427 201.733 86.0174 201.804 86.6272C201.875 87.237 201.82 87.8544 201.643 88.4438C201.466 89.0332 201.17 89.5831 200.772 90.0621C200.374 90.541 199.882 90.9395 199.324 91.2347Z" fill="white"/>
<path d="M166.338 74.5238C165.672 75.1305 107.506 57.6395 105.096 71.3861C102.686 85.1328 145.888 114.637 194.216 133.706C242.544 152.774 295.404 165.55 299.757 152.063C304.109 138.577 252.22 110.234 252.22 110.234L251.752 117.168C251.752 117.168 283.839 133.931 281.825 145.684C279.81 157.437 240.295 147.955 196.446 128.245C152.597 108.535 116.841 85.9649 120.906 77.384C124.97 68.8032 161.086 79.967 161.086 79.967L166.338 74.5238Z" fill="#D1E7FF"/>
</g>
</g>
<path d="M199.775 334.905L199.271 151.874L189.068 150.696L176.345 153.053L177.623 331.085L188.699 333.377L199.775 334.905Z" fill="#2F2325"/>
<path d="M134.729 36.2812C133.764 33.6348 134.605 30.6665 136.813 28.927L144.721 22.6955C147.537 20.4763 151.613 20.9695 153.825 23.7972L157.541 28.547C159.753 31.3747 159.263 35.466 156.447 37.6852L146.998 45.1313C143.532 47.8626 138.418 46.4008 136.903 42.2457L134.729 36.2812Z" fill="#2C4366"/>
<path d="M223.017 21.8151C224.957 19.7796 227.987 19.2298 230.523 20.4535L239.563 24.8159C242.795 26.3757 244.16 30.2624 242.61 33.497L239.993 38.959C238.444 42.1936 234.567 43.5513 231.335 41.9915L220.522 36.7738C216.546 34.8552 215.587 29.6131 218.628 26.4217L223.017 21.8151Z" fill="#3D557A"/>
<path d="M19.8541 226.834V240.684H109.838V226.834H19.8541Z" fill="#2F2325" stroke="#2F2325" stroke-width="1.81977" stroke-linecap="round" stroke-linejoin="round"/>
<path d="M29.1036 179.025H15.3032V234.441H29.1036V179.025Z" fill="#2F2325" stroke="#2F2325" stroke-width="1.81977" stroke-linecap="round" stroke-linejoin="round"/>
<path d="M34.8517 234.678C34.8517 236.345 34.5244 237.995 33.8886 239.534C33.2528 241.073 32.3209 242.471 31.1463 243.649C29.9716 244.826 28.5772 245.76 27.0428 246.396C25.5083 247.033 23.864 247.359 22.2037 247.357C21.79 247.357 21.3763 247.357 20.9774 247.357C18.676 247.129 16.4811 246.272 14.6313 244.879C12.7815 243.486 11.3476 241.611 10.4855 239.457C9.62345 237.303 9.3662 234.954 9.74175 232.664C10.1173 230.374 11.1113 228.231 12.6156 226.468C14.1199 224.705 16.077 223.39 18.274 222.666C20.471 221.941 22.8239 221.835 25.0767 222.359C27.3296 222.883 29.3962 224.017 31.0519 225.637C32.7076 227.257 33.8889 229.302 34.4675 231.549C34.7198 232.573 34.8488 233.624 34.8517 234.678Z" fill="#7CC0CA" stroke="#2F2325" stroke-width="0.809124" stroke-linecap="round" stroke-linejoin="round"/>
<path d="M35.7818 187.566C35.774 190.929 34.4385 194.152 32.0678 196.528C29.6972 198.905 26.4846 200.241 23.1339 200.245C22.7202 200.245 22.3065 200.245 21.8928 200.245C19.5903 200.024 17.3924 199.173 15.5383 197.785C13.6841 196.397 12.2446 194.526 11.3764 192.374C10.5082 190.222 10.2446 187.873 10.6141 185.581C10.9837 183.29 11.9723 181.144 13.4724 179.377C14.9726 177.61 16.9268 176.29 19.1225 175.56C21.3181 174.83 23.6712 174.718 25.9258 175.237C28.1803 175.755 30.25 176.885 31.9096 178.502C33.5692 180.119 34.7552 182.161 35.3386 184.408C35.6224 185.437 35.7714 186.499 35.7818 187.566Z" fill="#7CC0CA" stroke="#2F2325" stroke-width="0.809124" stroke-linecap="round" stroke-linejoin="round"/>
<path d="M45.3125 168.17C45.3125 174.069 42.9774 179.727 38.821 183.899C34.6645 188.07 29.0272 190.414 23.1491 190.414C22.4103 190.414 21.6715 190.414 20.977 190.325C16.9454 189.924 13.1004 188.421 9.85994 185.98C6.61952 183.54 4.10768 180.254 2.59744 176.481C1.08719 172.708 0.636317 168.592 1.29382 164.58C1.95133 160.567 3.69205 156.813 6.3268 153.724C8.96155 150.635 12.3895 148.33 16.2381 147.059C20.0867 145.789 24.2087 145.601 28.156 146.517C32.1033 147.433 35.7249 149.418 38.6273 152.255C41.5296 155.092 43.6016 158.673 44.618 162.609C45.0763 164.427 45.3095 166.295 45.3125 168.17Z" fill="#7CC0CA" stroke="#2F2325" stroke-width="0.809124" stroke-linecap="round" stroke-linejoin="round"/>
<path d="M55.6105 128.961L43.4878 150.009L42.8333 143.226L34.3425 152.409L48.5035 125.18L55.6105 128.961Z" fill="#2F2325" stroke="#2F2325" stroke-width="0.809124" stroke-linecap="round" stroke-linejoin="round"/>
<path d="M58.5657 127.938L53.7341 137.058L42.9626 131.319L47.7795 122.185C48.5416 120.755 49.8363 119.686 51.381 119.211C52.9257 118.736 54.5949 118.893 56.0243 119.649C57.4553 120.411 58.5266 121.712 59.003 123.266C59.4795 124.82 59.3222 126.501 58.5657 127.938Z" fill="#7CC0CA" stroke="#2F2325" stroke-width="0.809124" stroke-linecap="round" stroke-linejoin="round"/>
<path d="M46.8191 150.642C47.0557 149.099 46.831 147.521 46.1735 146.107C45.516 144.692 44.4552 143.505 43.1254 142.696C41.7956 141.887 40.2565 141.492 38.7029 141.561C37.1492 141.63 35.6509 142.159 34.3974 143.083C33.1439 144.007 32.1916 145.283 31.661 146.75C31.1304 148.217 31.0453 149.81 31.4166 151.325C31.7878 152.841 32.5987 154.212 33.7465 155.265C34.8944 156.318 36.3277 157.006 37.8651 157.241C38.8849 157.399 39.9258 157.354 40.9281 157.107C41.9304 156.861 42.8744 156.419 43.7061 155.806C44.5379 155.193 45.241 154.421 45.7751 153.535C46.3093 152.649 46.6641 151.666 46.8191 150.642Z" fill="#7CC0CA" stroke="#2F2325" stroke-width="0.809124" stroke-linecap="round" stroke-linejoin="round"/>
<path d="M25.5872 115.319L24.9371 152.925L16.9139 152.792L17.5493 115.185L25.5872 115.319Z" fill="#2F2325" stroke="#2F2325" stroke-width="0.809124" stroke-linecap="round" stroke-linejoin="round"/>
<path d="M27.7593 113.05L27.5967 123.43L15.3921 123.134L15.5546 112.753C15.5681 111.949 15.7393 111.155 16.0585 110.417C16.3777 109.68 16.8386 109.012 17.4148 108.453C17.9911 107.894 18.6715 107.454 19.4171 107.159C20.1627 106.864 20.959 106.719 21.7604 106.733C22.57 106.744 23.3693 106.918 24.1113 107.243C24.8534 107.568 25.5234 108.038 26.082 108.627C26.6406 109.215 27.0767 109.909 27.3647 110.669C27.6527 111.428 27.7869 112.238 27.7593 113.05Z" fill="#7CC0CA" stroke="#2F2325" stroke-width="0.809124" stroke-linecap="round" stroke-linejoin="round"/>
<path d="M21.1693 153.979C25.5106 153.979 29.03 150.447 29.03 146.09C29.03 141.733 25.5106 138.201 21.1693 138.201C16.828 138.201 13.3087 141.733 13.3087 146.09C13.3087 150.447 16.828 153.979 21.1693 153.979Z" fill="#7CC0CA" stroke="#2F2325" stroke-width="0.809124" stroke-linecap="round" stroke-linejoin="round"/>
<path d="M156.914 235.079C160.677 218.939 150.69 202.793 134.608 199.016C118.526 195.239 102.438 205.262 98.6751 221.402C94.912 237.543 104.898 253.689 120.981 257.466C137.063 261.242 153.151 251.22 156.914 235.079Z" fill="#7CC0CA"/>
<path d="M290.298 324.408L301.358 332.691L334.38 288.277L323.32 279.994L290.298 324.408Z" fill="#2F2325" stroke="#2F2325" stroke-width="1.81977" stroke-linecap="round" stroke-linejoin="round"/>
<path d="M326.186 291.639L334.44 280.538L262.321 226.529L254.068 237.63L326.186 291.639Z" fill="#2F2325" stroke="#2F2325" stroke-width="1.81977" stroke-linecap="round" stroke-linejoin="round"/>
<path d="M318.838 276.349C319.833 275.01 321.081 273.881 322.511 273.027C323.941 272.173 325.524 271.61 327.171 271.37C328.817 271.131 330.495 271.219 332.108 271.631C333.72 272.042 335.236 272.768 336.569 273.768L337.529 274.554C339.238 276.118 340.487 278.123 341.14 280.35C341.792 282.577 341.824 284.941 341.232 287.185C340.639 289.429 339.445 291.466 337.779 293.076C336.113 294.686 334.038 295.807 331.782 296.317C329.525 296.826 327.173 296.705 324.98 295.966C322.788 295.227 320.839 293.899 319.346 292.126C317.853 290.354 316.873 288.204 316.512 285.911C316.152 283.618 316.425 281.27 317.302 279.122C317.698 278.137 318.214 277.206 318.838 276.349Z" fill="#7CC0CA" stroke="#2F2325" stroke-width="0.809124" stroke-linecap="round" stroke-linejoin="round"/>
<path d="M289.981 311.834C291.855 309.042 294.756 307.111 298.048 306.466C301.34 305.821 304.752 306.514 307.535 308.394C307.875 308.616 308.2 308.868 308.525 309.12C310.309 310.598 311.655 312.538 312.416 314.73C313.178 316.922 313.326 319.282 312.844 321.553C312.363 323.823 311.27 325.918 309.685 327.609C308.1 329.299 306.083 330.521 303.854 331.142C301.625 331.762 299.269 331.757 297.043 331.128C294.817 330.498 292.805 329.268 291.227 327.57C289.649 325.873 288.564 323.774 288.092 321.502C287.62 319.229 287.778 316.87 288.548 314.681C288.906 313.676 289.388 312.72 289.981 311.834Z" fill="#7CC0CA" stroke="#2F2325" stroke-width="0.809124" stroke-linecap="round" stroke-linejoin="round"/>
<path d="M252.002 327.721L272.795 329.771L273.58 321.742L252.788 319.692L252.002 327.721Z" fill="#2F2325" stroke="#2F2325" stroke-width="1.81977" stroke-linecap="round" stroke-linejoin="round"/>
<path d="M250.737 317.395L260.992 318.403L259.795 330.593L249.54 329.585C247.93 329.427 246.448 328.634 245.42 327.38C244.392 326.126 243.902 324.513 244.059 322.897C244.219 321.279 245.013 319.791 246.265 318.76C247.517 317.729 249.125 317.238 250.737 317.395Z" fill="#7CC0CA" stroke="#2F2325" stroke-width="0.809124" stroke-linecap="round" stroke-linejoin="round"/>
<path d="M271.275 322.585C272.899 320.156 274.985 318.073 277.412 316.454C279.839 314.835 282.561 313.712 285.421 313.15C288.281 312.588 291.224 312.598 294.08 313.179C296.937 313.76 299.651 314.9 302.068 316.535C302.673 316.95 303.25 317.38 303.811 317.84C306.935 320.431 309.291 323.832 310.624 327.673C311.956 331.514 312.214 335.648 311.369 339.626C310.523 343.603 308.608 347.272 305.83 350.234C303.052 353.195 299.519 355.335 295.613 356.422C291.708 357.508 287.581 357.499 283.68 356.396C279.78 355.293 276.255 353.137 273.49 350.164C270.725 347.191 268.825 343.514 267.997 339.532C267.169 335.551 267.444 331.418 268.793 327.583C269.405 325.818 270.239 324.138 271.275 322.585Z" fill="#7CC0CA" stroke="#2F2325" stroke-width="0.809124" stroke-linecap="round" stroke-linejoin="round"/>
<path d="M247.398 345.689L274.881 325.062L279.299 330.978L251.816 351.591L247.398 345.689Z" fill="#2F2325" stroke="#2F2325" stroke-width="1.81977" stroke-linecap="round" stroke-linejoin="round"/>
<path d="M244.547 345.377L252.097 339.639L258.805 348.536L251.255 354.216C250.069 355.106 248.58 355.488 247.114 355.276C245.648 355.065 244.326 354.278 243.438 353.089C242.587 351.911 242.227 350.447 242.434 349.007C242.641 347.568 243.398 346.265 244.547 345.377Z" fill="#7CC0CA" stroke="#2F2325" stroke-width="0.809124" stroke-linecap="round" stroke-linejoin="round"/>
<path d="M282.889 331.423C283.238 329.9 283.129 328.308 282.575 326.847C282.021 325.387 281.047 324.124 279.777 323.22C278.507 322.316 276.998 321.81 275.442 321.768C273.885 321.726 272.351 322.148 271.034 322.982C269.717 323.816 268.677 325.024 268.045 326.452C267.413 327.88 267.217 329.465 267.484 331.004C267.75 332.544 268.466 333.969 269.541 335.1C270.616 336.231 272.001 337.016 273.521 337.355C275.547 337.807 277.668 337.438 279.423 336.326C281.178 335.215 282.424 333.453 282.889 331.423Z" fill="#7CC0CA" stroke="#2F2325" stroke-width="0.809124" stroke-linecap="round" stroke-linejoin="round"/>
<path d="M297.458 366.42L301.536 338.126L307.579 338.986L303.516 367.28L297.458 366.42Z" fill="#2F2325" stroke="#2F2325" stroke-width="1.81977" stroke-linecap="round" stroke-linejoin="round"/>
<path d="M295.611 367.918L296.719 360.132L305.895 361.452L304.787 369.223C304.702 369.828 304.498 370.411 304.189 370.938C303.879 371.465 303.469 371.925 302.981 372.293C302.494 372.661 301.94 372.929 301.35 373.081C300.759 373.234 300.145 373.268 299.541 373.182C298.325 373.006 297.228 372.352 296.491 371.366C295.755 370.379 295.438 369.139 295.611 367.918Z" fill="#7CC0CA" stroke="#2F2325" stroke-width="0.809124" stroke-linecap="round" stroke-linejoin="round"/>
<path d="M309.943 337.133C309.248 336.045 308.246 335.188 307.066 334.671C305.886 334.154 304.579 334 303.311 334.227C302.043 334.455 300.871 335.055 299.943 335.951C299.015 336.847 298.372 337.999 298.095 339.262C297.819 340.524 297.922 341.841 298.39 343.045C298.859 344.249 299.673 345.286 300.729 346.026C301.785 346.766 303.035 347.176 304.323 347.203C305.611 347.23 306.878 346.873 307.963 346.178C309.42 345.241 310.447 343.762 310.818 342.066C311.189 340.371 310.875 338.596 309.943 337.133Z" fill="#7CC0CA" stroke="#2F2325" stroke-width="0.809124" stroke-linecap="round" stroke-linejoin="round"/>
<path d="M270.256 362.653L288.578 333.529L294.798 337.444L276.491 366.583L270.256 362.653Z" fill="#2F2325" stroke="#2F2325" stroke-width="1.81977" stroke-linecap="round" stroke-linejoin="round"/>
<path d="M267.493 363.365L272.502 355.358L281.973 361.289L276.95 369.312C276.159 370.567 274.906 371.457 273.463 371.788C272.021 372.118 270.507 371.863 269.251 371.076C268.002 370.286 267.115 369.03 266.786 367.585C266.456 366.14 266.711 364.623 267.493 363.365Z" fill="#7CC0CA" stroke="#2F2325" stroke-width="0.809124" stroke-linecap="round" stroke-linejoin="round"/>
<path d="M298.344 336.584C298.125 335.04 297.454 333.596 296.416 332.435C295.378 331.274 294.02 330.449 292.513 330.063C291.007 329.678 289.421 329.751 287.956 330.272C286.491 330.793 285.214 331.739 284.285 332.99C283.357 334.241 282.819 335.74 282.741 337.298C282.663 338.856 283.047 340.402 283.846 341.74C284.644 343.078 285.821 344.148 287.226 344.814C288.632 345.48 290.203 345.713 291.74 345.481C293.789 345.177 295.635 344.07 296.873 342.402C298.111 340.734 298.64 338.642 298.344 336.584Z" fill="#7CC0CA" stroke="#2F2325" stroke-width="0.809124" stroke-linecap="round" stroke-linejoin="round"/>
<path d="M133.351 241.662C140.739 238.57 144.23 230.051 141.149 222.636C138.067 215.221 129.58 211.717 122.191 214.81C114.803 217.902 111.311 226.421 114.393 233.836C117.475 241.251 125.962 244.755 133.351 241.662Z" fill="#2F2325" stroke="#2F2325" stroke-width="1.81977" stroke-linecap="round" stroke-linejoin="round"/>
<path d="M264.402 253.999C278.29 245.027 282.301 226.455 273.361 212.516C264.421 198.578 245.916 194.552 232.028 203.525C218.14 212.497 214.129 231.07 223.069 245.008C232.008 258.946 250.514 262.972 264.402 253.999Z" fill="#7CC0CA"/>
<path d="M261.402 234.838C264.74 227.535 261.547 218.9 254.27 215.55C246.994 212.2 238.39 215.405 235.052 222.708C231.715 230.01 234.908 238.646 242.184 241.996C249.46 245.345 258.065 242.141 261.402 234.838Z" fill="#2F2325" stroke="#2F2325" stroke-width="1.81977" stroke-linecap="round" stroke-linejoin="round"/>
<path d="M256.333 168.762C266.649 155.781 273.105 140.142 274.959 123.643C276.812 107.144 273.988 90.4547 266.81 75.495C259.633 60.5352 248.394 47.9124 234.386 39.0784C220.378 30.2444 204.171 25.5579 187.627 25.5579C171.083 25.5579 154.875 30.2444 140.867 39.0784C126.859 47.9124 115.62 60.5352 108.443 75.495C101.266 90.4547 98.4412 107.144 100.295 123.643C102.148 140.142 108.604 155.781 118.92 168.762H256.333Z" fill="#C5F8FF"/>
<path d="M241.41 80.4691H131.686C125.011 80.4691 119.599 85.9 119.599 92.5994V131.63C119.599 138.329 125.011 143.76 131.686 143.76H241.41C248.085 143.76 253.496 138.329 253.496 131.63V92.5994C253.496 85.9 248.085 80.4691 241.41 80.4691Z" fill="#0075F4"/>
<path d="M134.08 109.549C135.531 105.471 138.176 101.929 141.667 99.3856C145.159 96.8424 149.335 95.4174 153.648 95.2971C157.96 95.1769 162.209 96.3671 165.836 98.7118C169.463 101.057 172.299 104.446 173.974 108.437" stroke="#2F2325" stroke-width="9.09883" stroke-linecap="round" stroke-linejoin="round"/>
<path d="M200.26 109.549C201.711 105.471 204.356 101.929 207.847 99.3856C211.339 96.8424 215.515 95.4174 219.828 95.2971C224.14 95.1769 228.389 96.3671 232.016 98.7118C235.643 101.057 238.479 104.446 240.154 108.437" stroke="#2F2325" stroke-width="9.09883" stroke-linecap="round" stroke-linejoin="round"/>
<path d="M176.072 124.215C176.443 127.155 177.87 129.859 180.086 131.819C182.301 133.779 185.153 134.861 188.107 134.861C191.06 134.861 193.912 133.779 196.128 131.819C198.343 129.859 199.771 127.155 200.142 124.215H176.072Z" fill="#67979E" stroke="#2F2325" stroke-width="1.81977" stroke-linecap="round" stroke-linejoin="round"/>
<path d="M187.967 67.9683C194.698 67.9699 201.322 66.2799 207.235 63.0524C213.148 59.8249 218.161 55.1627 221.818 49.4912L230.151 36.5454C216.946 29.2263 202.085 25.443 187 25.5599C171.916 25.6767 157.115 29.6898 144.024 37.2127L156.569 52.8426C160.342 57.5594 165.122 61.3668 170.556 63.9845C175.99 66.6022 181.939 67.9635 187.967 67.9683Z" fill="#71AFF2"/>
<path d="M246.63 190.221C227.821 185.965 187.099 184.437 187.099 184.437C177.288 184.749 149.983 185.92 131.173 190.236C127.613 191.048 124.514 193.236 122.55 196.325C120.586 199.415 119.915 203.157 120.683 206.74L138.103 288.538C138.959 292.504 141.14 296.057 144.284 298.609C147.429 301.16 151.347 302.557 155.391 302.566H222.546C226.589 302.557 230.508 301.16 233.652 298.609C236.797 296.057 238.977 292.504 239.833 288.538L257.239 206.74C258.003 203.139 257.317 199.38 255.329 196.285C253.341 193.19 250.214 191.01 246.63 190.221Z" fill="#7CC1CA"/>
<path d="M238.06 188.649C217.655 185.594 187.143 184.437 187.143 184.437C172.204 184.867 157.298 186.104 142.491 188.145L162.232 302.566H215.882L238.06 188.649Z" fill="#37516D"/>
<path d="M204.756 209.306H172.073C165.397 209.306 159.986 214.737 159.986 221.436V237.452C159.986 244.151 165.397 249.582 172.073 249.582H204.756C211.431 249.582 216.843 244.151 216.843 237.452V221.436C216.843 214.737 211.431 209.306 204.756 209.306Z" fill="#98C1FF"/>
<path d="M178.869 225.899H169.663V235.138H178.869V225.899Z" fill="#00FF29" stroke="#2F2325" stroke-width="0.809124" stroke-linecap="round" stroke-linejoin="round"/>
<path d="M193.009 225.899H183.804V235.138H193.009V225.899Z" fill="#FFD600" stroke="#2F2325" stroke-width="0.809124" stroke-linecap="round" stroke-linejoin="round"/>
<path d="M207.164 225.899H197.959V235.138H207.164V225.899Z" fill="#FE0101" stroke="#2F2325" stroke-width="0.809124" stroke-linecap="round" stroke-linejoin="round"/>
<defs>
<linearGradient id="paint0_linear_5_95" x1="192" y1="164" x2="466" y2="515" gradientUnits="userSpaceOnUse">
<stop stop-color="#035E65"/>
<stop offset="1" stop-color="#FFF2E7" stop-opacity="0"/>
</linearGradient>
<clipPath id="clip0_5_95">
<rect x="89.5132" y="54.4071" width="293.671" height="283.045" rx="141.523" fill="white"/>
</clipPath>
</defs>
</svg>
